<svg id="svg" version="1.1" xmlns="http://www.w3.org/2000/svg" style="display: block;" viewBox="0 0 1920 1080"><path d="M0 0 C633.6 0 1267.2 0 1920 0 C1920 356.4 1920 712.8 1920 1080 C1286.4 1080 652.8 1080 0 1080 C0 723.6 0 367.2 0 0 Z M1368 155 C1367.236875 155.72703125 1366.47375 156.4540625 1365.6875 157.203125 C1355.93218055 167.16168027 1349.30982004 180.27060235 1347 194 C1346.773125 195.11375 1346.54625 196.2275 1346.3125 197.375 C1344.67790456 216.33630714 1347.37369707 232.55809983 1357 249 C1357.47308594 249.84949219 1357.94617187 250.69898438 1358.43359375 251.57421875 C1365.49474178 263.24501832 1376.14066274 271.65448448 1388 278 C1388.74507812 278.40734375 1389.49015625 278.8146875 1390.2578125 279.234375 C1408.35642046 288.18045498 1428.53931947 287.74243347 1447.4765625 281.93359375 C1469.42549922 273.99740303 1483.43173779 260.11489798 1493.4921875 239.33984375 C1500.83864201 223.06725669 1501.84873082 202.54622075 1496.37890625 185.5078125 C1488.42181553 165.26569503 1476.26852388 149.03424306 1456.1875 139.5625 C1454.13308518 138.68906615 1452.07137222 137.83242061 1450 137 C1449.27167969 136.68417969 1448.54335937 136.36835938 1447.79296875 136.04296875 C1420.20534463 124.6370875 1388.39630801 134.99592868 1368 155 Z M1142 195 C1141.31164063 195.67546875 1140.62328125 196.3509375 1139.9140625 197.046875 C1131.11896177 206.2938979 1124.64118101 217.8020436 1121 230 C1120.4121875 231.8253125 1120.4121875 231.8253125 1119.8125 233.6875 C1114.49501728 255.36646799 1117.50038134 280.53957713 1129.05322266 299.75146484 C1131.53020529 303.63555463 1134.22133853 307.32729023 1137 311 C1137.46792969 311.65355469 1137.93585938 312.30710937 1138.41796875 312.98046875 C1148.95324725 326.62770644 1166.53287867 335.93198018 1183 340 C1184.47533203 340.51626953 1184.47533203 340.51626953 1185.98046875 341.04296875 C1206.2838722 346.83075537 1230.36340871 341.08997178 1248.4140625 331.1640625 C1253.78845183 328.02591987 1258.44390687 324.22409875 1263 320 C1263.86238281 319.22914063 1264.72476562 318.45828125 1265.61328125 317.6640625 C1280.91313172 303.31609954 1290.33806648 282.51204929 1291.2265625 261.60546875 C1291.86813853 236.76107867 1284.98737167 214.69509687 1268 196 C1252.00994681 179.58454634 1230.90089204 169.34277247 1207.92431641 168.72070312 C1182.23792423 168.39416084 1160.45673853 176.85190258 1142 195 Z M1551 266 C1550.43667969 266.54140625 1549.87335938 267.0828125 1549.29296875 267.640625 C1540.4886539 276.83985635 1535.59003136 290.12122378 1535.75 302.6875 C1535.75894287 303.4805957 1535.76788574 304.27369141 1535.77709961 305.09082031 C1536.10752108 321.95772359 1541.13211696 335.40775196 1553.1015625 347.37109375 C1564.76060892 357.94594313 1578.53803695 363.5311266 1594.21484375 363.24609375 C1610.83694523 362.16539985 1623.32101581 356.82116313 1635 345 C1635.97259766 344.06027344 1635.97259766 344.06027344 1636.96484375 343.1015625 C1647.08491357 332.60503494 1651.40670857 317.37722566 1651.2109375 303.0859375 C1650.13929031 287.408136 1643.97131537 274.19486881 1633 263 C1608.31682782 242.07907771 1574.02462118 242.68602092 1551 266 Z M1239.3125 466.875 C1229.36783191 477.91313828 1222.1119463 490.51330858 1216 504 C1215.58258545 504.91966553 1215.58258545 504.91966553 1215.15673828 505.85791016 C1201.37156448 536.83087459 1198.53796494 572.74685573 1204 606 C1204.29197266 607.90265625 1204.29197266 607.90265625 1204.58984375 609.84375 C1210.43029656 644.40264236 1225.00429287 674.5073962 1249 700 C1249.54785156 700.60070312 1250.09570312 701.20140625 1250.66015625 701.8203125 C1278.20481075 730.92154453 1321.68774325 746.65027513 1361 748 C1377.02106476 748.43875822 1393.11401292 748.65446462 1409.00439453 746.29443359 C1410.8931742 746.01576118 1412.78840764 745.78190151 1414.68359375 745.55078125 C1444.79609878 741.05780431 1474.58005423 726.81787276 1496.7734375 706.0703125 C1498.79346607 704.19204032 1500.87292679 702.44169981 1503 700.6875 C1534.05985505 673.43216535 1547.73994115 628.70783704 1550.8190918 588.93359375 C1553.34665562 547.94680976 1545.64007197 505.42949937 1519 473 C1518.55333984 472.45327637 1518.10667969 471.90655273 1517.64648438 471.34326172 C1488.72128517 436.06692092 1447.04660993 416.54081173 1401.85766602 411.66064453 C1340.30764144 406.40700227 1282.44143839 421.10842406 1239.3125 466.875 Z M287 415 C287 431.17 287 447.34 287 464 C300.2 464 313.4 464 327 464 C326.98223795 484.6983611 326.94370657 505.39635035 326.86790943 526.09457302 C326.8333648 535.70671016 326.80791779 545.31870546 326.80444336 554.9309082 C326.80138874 563.31611907 326.78069856 571.70107664 326.73947543 580.08618981 C326.71827867 584.51957767 326.70547545 588.95260665 326.71384621 593.38604546 C326.7214718 597.5731606 326.70522478 601.75955371 326.67193985 605.94653702 C326.66380763 607.46969158 326.66383461 608.99291938 326.67340279 610.5160656 C326.78475461 630.21908528 320.74948471 649.43737372 307 664 C289.24981682 681.03893891 266.0363728 685.19675037 242.45385742 685.13037109 C240.20289293 685.12503648 237.95213012 685.13032887 235.70117188 685.13671875 C234.23177041 685.13605738 232.76236906 685.13477499 231.29296875 685.1328125 C229.9886792 685.13168457 228.68438965 685.13055664 227.34057617 685.12939453 C221.87586854 685.03928548 216.43975651 684.49906676 211 684 C210.97687316 692.32728947 210.95908317 700.65456563 210.94818783 708.98187923 C210.94295974 712.84820118 210.93586346 716.71450121 210.92456055 720.58081055 C210.913729 724.30903401 210.9077226 728.03723634 210.90512276 731.76547432 C210.90326899 733.19089656 210.89964929 734.61631759 210.89426994 736.04173088 C210.88705607 738.03163408 210.88659192 740.02155834 210.88647461 742.01147461 C210.884254 743.14620712 210.88203339 744.28093964 210.87974548 745.45005798 C210.71025577 747.93459305 210.71025577 747.93459305 212 749 C249.13741189 752.7981444 290.32537473 751.2817191 326 740 C326.92167969 739.73832031 327.84335937 739.47664063 328.79296875 739.20703125 C355.93028189 731.05435466 381.07256794 714.60069402 394.984375 689.45703125 C401.97141851 676.39744427 406.76242546 663.0623054 408.64668274 648.34129333 C408.83849199 646.84312282 408.83849199 646.84312282 409.03417617 645.31468624 C410.30977028 634.56907157 410.40082561 623.90871769 410.34057617 613.10180664 C410.33972698 610.92110201 410.34021072 608.74039652 410.34190369 606.55969238 C410.34275368 600.72025361 410.32529204 594.8810051 410.30418181 589.04161 C410.28524619 582.90913345 410.28365142 576.77665106 410.28010559 570.64414978 C410.2708342 559.06739462 410.24628782 547.4907259 410.21605712 535.91400856 C410.17604059 520.24495303 410.16001854 504.57587276 410.14255047 488.90677929 C410.11446241 464.27112163 410.0546604 439.63564625 410 415 C369.41 415 328.82 415 287 415 Z M492 415 C492 431.17 492 447.34 492 464 C505.2 464 518.4 464 532 464 C532 540.23 532 616.46 532 695 C518.8 695 505.6 695 492 695 C492 711.17 492 727.34 492 744 C546.12 744 600.24 744 656 744 C656 727.83 656 711.66 656 695 C642.47 695 628.94 695 615 695 C615 618.77 615 542.54 615 464 C628.53 464 642.06 464 656 464 C656 447.83 656 431.66 656 415 C601.88 415 547.76 415 492 415 Z M744 415 C744 431.17 744 447.34 744 464 C757.2 464 770.4 464 784 464 C784 540.23 784 616.46 784 695 C770.8 695 757.6 695 744 695 C744 711.17 744 727.34 744 744 C794.49 744 844.98 744 897 744 C897 727.83 897 711.66 897 695 C886.77 695 876.54 695 866 695 C866 671.57 866 648.14 866 624 C889.97615491 624.16934831 889.97615491 624.16934831 900.25 624.2578125 C907.24150818 624.31796067 914.23299035 624.37610516 921.22460938 624.421875 C926.86570862 624.45893454 932.50666252 624.50534894 938.14763641 624.55806351 C940.29241112 624.57649818 942.43721685 624.59164577 944.58203888 624.60334396 C966.4280741 624.72668677 986.33797828 626.17262847 1003.05859375 641.94140625 C1014.75021459 654.38732521 1016.01272354 669.3137518 1016.44555664 685.59015274 C1016.50116225 687.676419 1016.56152742 689.76250252 1016.62304688 691.84860229 C1016.77475713 697.02424879 1016.9187881 702.20010275 1017.0625 707.37597656 C1017.18463936 711.76631419 1017.31000067 716.15653647 1017.43969727 720.54665756 C1017.49879188 722.59101789 1017.55319761 724.63546775 1017.60742188 726.67996216 C1017.6625293 728.55758743 1017.6625293 728.55758743 1017.71875 730.47314453 C1017.74904297 731.56740753 1017.77933594 732.66167053 1017.81054688 733.78909302 C1018.01237851 737.20979464 1018.5153984 740.60778879 1019 744 C1057.94 744 1096.88 744 1137 744 C1137 727.83 1137 711.66 1137 695 C1125.12 695 1113.24 695 1101 695 C1101.05220703 690.80410156 1101.05220703 690.80410156 1101.10546875 686.5234375 C1101.12897118 683.76628638 1101.14712664 681.00914711 1101.16479492 678.25195312 C1101.17973424 676.35899734 1101.20009315 674.46607525 1101.22631836 672.57324219 C1101.41890892 658.29888305 1101.24427118 644.66003796 1094.3125 631.75 C1093.96364746 631.08162109 1093.61479492 630.41324219 1093.25537109 629.72460938 C1083.93443062 612.39695173 1067.93662405 601.11708903 1049.23828125 595.453125 C1044.54435978 594.50287214 1039.77546891 594.23432927 1035 594 C1035 592.68 1035 591.36 1035 590 C1036.03125 589.938125 1037.0625 589.87625 1038.125 589.8125 C1053.5410271 587.77334298 1068.24323115 579.06072864 1078 567 C1094.7018324 543.65699905 1102.43696244 515.47217095 1098.71142578 486.77734375 C1096.22300972 472.90901695 1089.36527499 460.37248381 1080 450 C1079.03707031 448.88044922 1079.03707031 448.88044922 1078.0546875 447.73828125 C1057.56227454 425.41479717 1023.03723003 416.90079357 994 415 C990.35410933 414.87926337 986.71362227 414.86841556 983.065979 414.87974548 C982.03483782 414.87889106 981.00369663 414.87803663 979.94130874 414.87715632 C976.52367972 414.87552348 973.10610098 414.88098655 969.68847656 414.88647461 C967.22368369 414.88675698 964.75889073 414.88659777 962.2940979 414.8860321 C957.00681169 414.88580519 951.71954081 414.88862148 946.43225861 414.89426994 C938.78793742 414.9024311 931.14362218 414.90500487 923.49929711 414.90625793 C911.09392905 414.90844123 898.6885676 414.91508166 886.28320312 414.92456055 C874.23958367 414.9337534 862.19596601 414.94082505 850.15234375 414.94506836 C849.40874754 414.94533108 848.66515132 414.94559381 847.89902189 414.94586449 C844.1682517 414.94716962 840.4374815 414.94843331 836.70671129 414.94967639 C805.80446841 414.9600265 774.90223768 414.97845263 744 415 Z M1650.0625 439.4375 C1643.08268846 449.2460601 1640.91495927 457.64667424 1642.30859375 469.66015625 C1644.14110369 480.15249195 1648.99018007 487.92347767 1657 495 C1668.19584417 501.87585963 1678.32952711 503.69461539 1691.25 500.875 C1700.44536495 498.27025235 1707.59343831 492.86775768 1713 485 C1719.12544962 473.55842182 1720.67770855 463.58163451 1717 451 C1713.45259724 441.31171514 1707.09875118 433.88272755 1697.9375 429.0625 C1681.1479767 421.53705679 1661.9932045 424.73988743 1650.0625 439.4375 Z M1679 565 C1672.67857975 573.73692229 1671.78659596 581.90659506 1673.390625 592.60546875 C1675.48322082 600.18442155 1681.05142649 606.50106711 1687.75 610.5 C1695.27108862 613.97127167 1704.12917497 614.12905304 1712.08984375 611.82421875 C1720.25186754 608.3023639 1725.8473 601.6450996 1729.23828125 593.58984375 C1731.49210229 585.92685223 1730.80146073 577.05438854 1727 570 C1722.68258077 563.82791476 1717.37300487 558.1783878 1710 556 C1697.90148904 554.61164628 1687.91467436 556.08532564 1679 565 Z M1675.75 671.125 C1672.04943662 675.76044255 1670.80844807 680.43234528 1671.125 686.328125 C1672.07760719 692.16284404 1674.52906919 696.16184594 1679 700 C1685.09558604 703.90117506 1691.0284397 703.42533987 1698 702 C1703.38624768 699.30687616 1706.68000337 695.70285023 1709.3125 690.3125 C1710.54312565 684.38312185 1710.06885494 679.09812266 1707.3125 673.6875 C1703.4418909 669.18922456 1699.72552567 665.30412454 1693.51171875 664.796875 C1685.91221769 664.6707422 1681.1774386 665.51534524 1675.75 671.125 Z M1661 756 C1659.24042858 759.51914285 1660.06275769 763.27743197 1661 767 C1662.83333333 769.83333333 1662.83333333 769.83333333 1666 771 C1670.62248224 771.38726678 1673.91231579 770.82871178 1677.625 768 C1679.56503356 763.76719951 1679.40804109 760.4135089 1678 756 C1675.27278134 752.71129515 1673.71932718 752.10276103 1669.5 751.5 C1665.46238667 752.0768019 1663.85349783 753.14650217 1661 756 Z " transform="translate(0,0)" style="fill: #FEFEFE;"/><path d="M0 0 C31.57617701 -0.04415773 63.15232402 -0.08106029 94.7285223 -0.10213066 C98.46322065 -0.10463183 102.19791894 -0.1072205 105.93261719 -0.10986328 C106.67607391 -0.1103879 107.41953064 -0.11091252 108.18551636 -0.11145304 C120.19599023 -0.1201365 132.20644481 -0.13589504 144.21690726 -0.15430559 C156.55671873 -0.1730621 168.89652015 -0.18412884 181.23634529 -0.18817699 C188.83998624 -0.19091016 196.44357261 -0.19951714 204.04719675 -0.21583293 C209.89477813 -0.22773528 215.74232516 -0.22889692 221.58991623 -0.22621536 C223.97623402 -0.22676238 226.36255402 -0.23069749 228.74885941 -0.23841095 C241.34437527 -0.27710311 253.54883389 -0.0094042 266 2 C267.37977546 2.21242388 268.75967003 2.42407548 270.13967896 2.63497734 C296.1444453 6.68484978 323.82873375 18.19591766 340.22802734 39.60302734 C350.01900645 53.15223913 355.42546318 67.86458032 355.25 84.625 C355.24105713 85.59429443 355.23211426 86.56358887 355.22290039 87.56225586 C354.81039682 113.31487523 347.07765502 138.73754434 328.62109375 157.40625 C318.55829606 166.85488633 305.26684288 175 291 175 C291 176.32 291 177.64 291 179 C291.680625 179.00257813 292.36125 179.00515625 293.0625 179.0078125 C310.39590692 179.6993048 328.15359622 188.44502628 340 201 C355.24383704 218.93888006 357.50074449 237.76623435 357.1875 260.375 C357.17241475 262.2864477 357.15873319 264.19790702 357.14648438 266.109375 C357.11638859 270.74011374 357.05761825 275.36919991 357 280 C368.88 280 380.76 280 393 280 C393 296.17 393 312.34 393 329 C354.06 329 315.12 329 275 329 C274.33196179 324.32373251 273.84781536 320.13533018 273.71875 315.47314453 C273.66364258 313.59551926 273.66364258 313.59551926 273.60742188 311.67996216 C273.58993896 311.02077915 273.57245605 310.36159615 273.55444336 309.6824379 C273.49901621 307.59577574 273.43859386 305.50930835 273.37695312 303.42282104 C273.24689646 298.99033443 273.12307672 294.55768514 273 290.125 C272.85718098 284.99021008 272.71172136 279.85551802 272.56030273 274.72097397 C272.5013636 272.68003103 272.44685568 270.63900232 272.39257812 268.59793091 C271.89106103 251.42413252 269.48165894 237.78737399 257.125 225.0703125 C244.36718187 213.08413659 227.01728285 209.90440104 210.09570312 209.79467773 C209.138685 209.78477814 208.18166687 209.77487854 207.19564819 209.76467896 C204.05753994 209.73329315 200.91941659 209.70839789 197.78125 209.68359375 C195.59549585 209.66300439 193.40974551 209.64200742 191.22399902 209.62062073 C185.48989964 209.56560466 179.75576554 209.51610566 174.02160645 209.46777344 C167.13150259 209.40854276 160.24146173 209.3424281 153.35140991 209.27747345 C142.90097864 209.17972168 132.45050569 209.0906894 122 209 C122 232.43 122 255.86 122 280 C132.23 280 142.46 280 153 280 C153 296.17 153 312.34 153 329 C102.51 329 52.02 329 0 329 C0 312.83 0 296.66 0 280 C13.2 280 26.4 280 40 280 C40 203.77 40 127.54 40 49 C26.8 49 13.6 49 0 49 C0 32.83 0 16.66 0 0 Z M122 61 C122 89.38 122 117.76 122 147 C141.58884431 147.11646217 141.58884431 147.11646217 161.17773438 147.1953125 C169.17451492 147.21916671 177.17108645 147.24729967 185.16772461 147.30175781 C191.61924057 147.34541544 198.07055872 147.36917927 204.52221107 147.37950897 C206.97602766 147.38686464 209.42983418 147.401228 211.8835659 147.42292023 C229.86527361 147.80378562 229.86527361 147.80378562 247 143 C247.84680832 142.6221637 248.69361664 142.24432739 249.56608582 141.8550415 C260.75482434 136.51384066 266.75735161 127.3187798 271 116 C273.81443149 106.10461841 273.21040706 93.88423847 268.671875 84.6796875 C260.44916295 71.50029388 249.65269522 65.87164711 235 62 C234.37581051 61.8217698 233.75162102 61.6435396 233.10851669 61.45990849 C230.80302036 60.95703491 228.74011114 60.87702752 226.38092041 60.87974548 C225.45827896 60.87837082 224.53563751 60.87699615 223.58503723 60.87557983 C222.07776314 60.88097275 222.07776314 60.88097275 220.54003906 60.88647461 C219.47631577 60.88632858 218.41259247 60.88618256 217.31663513 60.8860321 C213.79961103 60.88672894 210.28263985 60.89451067 206.765625 60.90234375 C204.32753529 60.90420874 201.8894452 60.90563226 199.45135498 60.90663147 C193.03325364 60.91045024 186.61517492 60.9202751 180.19708252 60.93133545 C172.4969886 60.94336145 164.79688712 60.94795486 157.0967865 60.95378876 C145.39784193 60.96348716 133.698947 60.98264823 122 61 Z " transform="translate(744,415)" style="fill: #E88490;"/><path d="M0 0 C1.40958984 0.23396484 1.40958984 0.23396484 2.84765625 0.47265625 C37.9668189 6.46644507 68.44607069 20.15796135 95 44 C95.65097656 44.57878906 96.30195312 45.15757812 96.97265625 45.75390625 C126.88975055 73.97357676 139.81399424 115.58938613 141.21875 155.5546875 C141.68176572 175.78301685 139.9995143 196.61053414 134 216 C133.76829102 216.7847168 133.53658203 217.56943359 133.29785156 218.37792969 C121.18927116 259.0982908 95.35163364 293.33281589 57.90112305 313.93261719 C51.4407388 317.38669949 44.85681754 320.41453333 38 323 C37.24654297 323.28617188 36.49308594 323.57234375 35.71679688 323.8671875 C-2.15434746 337.98965407 -48.99104949 340.29496448 -88 329 C-88.70511719 328.79922852 -89.41023438 328.59845703 -90.13671875 328.39160156 C-106.95058408 323.49384636 -123.72426585 316.21961286 -138 306 C-138.95648437 305.32582031 -139.91296875 304.65164063 -140.8984375 303.95703125 C-168.90168772 283.62048064 -188.70071867 256.02100919 -199 223 C-199.22526367 222.30696777 -199.45052734 221.61393555 -199.68261719 220.89990234 C-214.0769511 176.59779763 -211.40650536 125.7041699 -190.90478516 83.75927734 C-186.1573501 74.49747459 -180.51234596 66.12632425 -174 58 C-173.24589844 57.030625 -172.49179688 56.06125 -171.71484375 55.0625 C-167.22381836 49.39286932 -162.6108426 44.54601116 -157 40 C-156.19046875 39.30390625 -155.3809375 38.6078125 -154.546875 37.890625 C-112.79236154 2.48475101 -53.31053167 -9.07600787 0 0 Z M-100 89 C-119.68727177 111.2566053 -125.20881505 139.46472339 -125.375 168.3125 C-125.38285522 168.97955963 -125.39071045 169.64661926 -125.39880371 170.33389282 C-125.52353328 183.93757773 -123.16781773 196.69853256 -118.8125 209.5625 C-118.51134277 210.45308105 -118.21018555 211.34366211 -117.89990234 212.26123047 C-109.47377919 236.22396487 -92.7818728 252.90846739 -70.49609375 264.27734375 C-49.54633066 274.20880568 -23.3758327 273.36137071 -1.82421875 265.99975586 C20.03068099 258.09999161 36.67634124 241.32956295 46.921875 220.6953125 C50.58705489 212.8034068 52.81697387 204.39866339 55 196 C55.1870752 195.32340332 55.37415039 194.64680664 55.56689453 193.94970703 C58.11825147 184.44607848 58.18226423 174.98363072 58.1875 165.1875 C58.19974609 163.99318359 58.21199219 162.79886719 58.22460938 161.56835938 C58.23724107 153.83354912 57.53513359 146.57684843 56 139 C55.85393311 138.24001709 55.70786621 137.48003418 55.55737305 136.69702148 C51.69066476 117.25475012 43.77710449 101.40224361 30 87 C29.37480469 86.30003906 28.74960938 85.60007812 28.10546875 84.87890625 C15.30497119 71.05436889 -5.14867966 62.69980162 -23.85351562 61.87402344 C-53.31105641 61.14633559 -78.77387061 67.26818176 -100 89 Z " transform="translate(1410,413)" style="fill: #F6A8A6;"/><path d="M0 0 C54.12 0 108.24 0 164 0 C164 16.17 164 32.34 164 49 C150.47 49 136.94 49 123 49 C123 125.23 123 201.46 123 280 C136.53 280 150.06 280 164 280 C164 296.17 164 312.34 164 329 C109.88 329 55.76 329 0 329 C0 312.83 0 296.66 0 280 C13.2 280 26.4 280 40 280 C40 203.77 40 127.54 40 49 C26.8 49 13.6 49 0 49 C0 32.83 0 16.66 0 0 Z " transform="translate(492,415)" style="fill: #D26390;"/><path d="M0 0 C40.59 0 81.18 0 123 0 C123.1209091 54.49418038 123.1209091 54.49418038 123.14648438 77.43554688 C123.16424349 93.23822817 123.18505236 109.04086503 123.22631836 124.84350586 C123.2563657 136.35556482 123.27560916 147.86758444 123.28226548 159.37968153 C123.28615193 165.46647385 123.2951857 171.55315372 123.31719017 177.63990974 C123.33779847 183.3879158 123.34378548 189.13576482 123.33932304 194.88380432 C123.3401375 196.97531429 123.34595626 199.06683041 123.35761642 201.15830803 C123.4147471 211.94998028 123.03517652 222.52836186 121.67793274 233.24363708 C121.56311717 234.16028769 121.4483016 235.07693829 121.33000678 236.02136618 C118.47676707 256.42855273 109.92828177 275.79931402 96 291 C95.17886719 291.91394531 94.35773438 292.82789063 93.51171875 293.76953125 C77.17136706 311.07820007 54.80433863 321.24563418 32 327 C31.01644531 327.28230469 30.03289062 327.56460937 29.01953125 327.85546875 C19.20946906 330.58125472 9.08346383 331.75693081 -1 333 C-1.84788086 333.10731445 -2.69576172 333.21462891 -3.56933594 333.32519531 C-26.83564881 336.16915672 -51.66286962 336.38675197 -75 334 C-76 333 -76 333 -76.12025452 330.45005798 C-76.11803391 329.31532547 -76.11581329 328.18059296 -76.11352539 327.01147461 C-76.11344986 325.73022202 -76.11337433 324.44896942 -76.11329651 323.12889099 C-76.10818909 321.72004152 -76.10297309 320.31119244 -76.09765625 318.90234375 C-76.09579202 317.46887766 -76.09436814 316.03541093 -76.09336853 314.60194397 C-76.08954372 310.82240043 -76.07971377 307.0428951 -76.06866455 303.2633667 C-76.05844963 299.40930702 -76.05387074 295.55524118 -76.04882812 291.70117188 C-76.03809146 284.13409713 -76.02101549 276.56705391 -76 269 C-75.22832993 269.0702388 -74.45665985 269.1404776 -73.66160583 269.21284485 C-65.50967862 269.92833604 -57.46239432 270.1862057 -49.2824707 270.18530273 C-47.06897856 270.18749359 -44.85598309 270.20574165 -42.64257812 270.22460938 C-30.70910656 270.27360261 -19.29508678 269.23425388 -7.9375 265.3125 C-6.7928125 264.92058472 -6.7928125 264.92058472 -5.625 264.52075195 C11.20522579 258.52338756 23.87279438 247.88271479 32 232 C34.04284908 227.45993993 35.61331881 222.77820266 37 218 C37.3434848 216.93442871 37.6869696 215.86885742 38.04086304 214.77099609 C39.68232895 208.0921122 39.30965678 201.14694288 39.31884766 194.3125 C39.32815635 192.72512812 39.33832642 191.1377611 39.34928894 189.55039978 C39.37649692 185.2596983 39.39171095 180.96902949 39.40471697 176.67826462 C39.42038792 172.1872459 39.44716545 167.69629349 39.4727478 163.20532227 C39.51946555 154.70932315 39.55624349 146.21331147 39.58942068 137.71724987 C39.62769164 128.04127026 39.67708873 118.36535736 39.72740483 108.68943405 C39.8306205 88.79299924 39.91844595 68.89653621 40 49 C26.8 49 13.6 49 0 49 C0 32.83 0 16.66 0 0 Z " transform="translate(287,415)" style="fill: #9D3353;"/><path d="M0 0 C1.63884155 -0.00821777 1.63884155 -0.00821777 3.31079102 -0.01660156 C28.23687754 0.20180059 49.05743894 10.14021134 66.49829102 27.62744141 C71.09117927 32.39695078 74.63181271 37.49895588 77.8125 43.3125 C78.34488281 44.28058594 78.87726563 45.24867188 79.42578125 46.24609375 C88.85596494 64.24066263 91.98922442 82.97681297 92 103.0625 C92.01224609 104.2484375 92.02449219 105.434375 92.03710938 106.65625 C92.05624078 118.33916134 90.41172565 129.40556615 87.1875 140.625 C86.93097656 141.51799805 86.67445313 142.41099609 86.41015625 143.33105469 C79.59767185 165.93978548 65.44211085 186.05086336 45.1953125 198.54296875 C22.42890256 210.45195686 -4.42648125 213.10033564 -29.125 205.6875 C-51.48752052 197.60717592 -69.7991979 181.82696491 -80.1875 160.3125 C-87.70749033 142.80834171 -91.60326158 125.91645861 -91.5 106.8125 C-91.49817719 106.11206573 -91.49635437 105.41163147 -91.49447632 104.68997192 C-91.37371363 77.04397123 -85.74526642 52.46786711 -68.1875 30.3125 C-67.69636719 29.66796875 -67.20523437 29.0234375 -66.69921875 28.359375 C-57.04016969 16.27876153 -41.90840394 7.58631082 -27.1875 3.3125 C-26.23746094 3.01472656 -25.28742188 2.71695312 -24.30859375 2.41015625 C-16.20904319 0.2535888 -8.34796657 0.0305851 0 0 Z " transform="translate(1376.1875,474.6875)" style="fill: #FEFEFE;"/><path d="M0 0 C0.61794434 0.19335938 1.23588867 0.38671875 1.87255859 0.5859375 C25.91219233 8.25778318 43.41260631 23.94127064 55.2668457 46.15551758 C64.7760728 65.01385159 65.90551928 89.65398646 59.8828125 109.72265625 C52.21808572 132.83876898 36.86733046 150.0848835 15.5625 161.625 C-3.9949746 171.22462975 -28.66225367 174.21431683 -49.58984375 167.390625 C-60.67847641 162.8688 -70.60615365 157.50555629 -80 150 C-80.61875 149.54496094 -81.2375 149.08992187 -81.875 148.62109375 C-96.88992706 136.97757392 -105.108096 118.05227786 -109 100 C-109.1757959 99.21020752 -109.3515918 98.42041504 -109.53271484 97.60668945 C-111.53413672 86.4420179 -110.94800972 72.9150993 -108 62 C-107.81695313 61.21496094 -107.63390625 60.42992187 -107.4453125 59.62109375 C-101.99148221 38.64741305 -87.20732445 20.12608031 -68.765625 9.10546875 C-47.96328559 -2.77146901 -23.25578202 -7.4963693 0 0 Z " transform="translate(1228,172)" style="fill: #FFDAC7;"/><path d="M0 0 C13.99761632 11.62811387 24.79392897 29.06110871 27 47.375 C27.86741059 59.37034786 28.29299179 71.97874468 24 83.375 C23.64808594 84.36113281 23.29617188 85.34726563 22.93359375 86.36328125 C15.51205594 105.63968474 1.92808357 120.47260688 -16.75 129.25 C-18.49105666 129.98003961 -20.24065444 130.69020857 -22 131.375 C-22.73476562 131.67019531 -23.46953125 131.96539062 -24.2265625 132.26953125 C-43.21349002 139.27743359 -63.80210703 137.69222306 -82.12109375 129.6484375 C-91.10652761 125.35085935 -98.07712174 119.45126551 -105 112.375 C-105.73863281 111.66859375 -106.47726562 110.9621875 -107.23828125 110.234375 C-120.40567044 96.8368761 -125.85440084 76.84482106 -126.3125 58.5625 C-125.99979044 43.70056676 -122.34585645 32.16634762 -115 19.375 C-114.52691406 18.52292969 -114.05382813 17.67085937 -113.56640625 16.79296875 C-103.68558409 0.52039813 -86.43815473 -10.92596862 -68.21875 -15.59375 C-43.41407351 -21.05903289 -20.20427476 -15.17677249 0 0 Z " transform="translate(1472,149.625)" style="fill: #F6A8A6;"/><path d="M0 0 C26.64116247 -0.16043524 26.64116247 -0.16043524 38.0625 -0.1953125 C45.83311999 -0.21915468 53.60355011 -0.24725488 61.37402344 -0.30175781 C67.64399665 -0.34545712 73.91376601 -0.3691879 80.18387985 -0.37950897 C82.56709371 -0.38685725 84.95029736 -0.40120585 87.33342361 -0.42292023 C107.43827141 -0.59870037 125.3497446 0.97485912 140.73046875 15.38671875 C149.25893376 25.20693061 150.83156532 36.20195509 150.23535156 48.69238281 C149.09072417 59.91543069 142.4319537 69.85882251 134 77 C119.41017674 87.33564779 103.30206245 86.54154653 86.23046875 86.390625 C83.7379858 86.38315343 81.24549693 86.37746483 78.75300598 86.37347412 C72.23130733 86.35829008 65.70997188 86.31907085 59.18841553 86.2746582 C51.34302809 86.22371783 43.49744556 86.20813704 35.65193939 86.18484497 C23.76770793 86.14621547 11.88427149 86.06950996 0 86 C0 57.62 0 29.24 0 0 Z " transform="translate(866,476)" style="fill: #FEFEFE;"/><path d="M0 0 C12.37779296 10.15449336 19.86503966 24.48073291 21.63671875 40.29296875 C22.66356465 55.56730145 18.28229911 70.28348248 8.63671875 82.29296875 C-2.02918251 94.43767781 -14.92585848 102.1394654 -31.36328125 103.29296875 C-47.51359708 104.29851573 -61.63518445 100.07730438 -74.046875 89.50317383 C-85.93082128 78.89912263 -92.40772198 66.10862999 -93.50927734 50.18212891 C-94.35651887 33.74850318 -90.73347122 20.11382047 -79.81640625 7.3046875 C-58.3702322 -15.08051395 -25.33921928 -18.30287409 0 0 Z " transform="translate(1629.36328125,259.70703125)" style="fill: #E88490;"/><path d="M0 0 C11.00493184 0.19010439 19.84726622 4.9487582 27.55859375 12.34765625 C34.18501884 19.24157006 37.7394241 26.71395641 38.4375 36.3125 C38.54964844 37.28896484 38.54964844 37.28896484 38.6640625 38.28515625 C39.31147103 47.67257994 35.0758405 57.36523063 29.1640625 64.53515625 C20.32529581 73.63388667 10.95684643 77.27552881 -1.6875 77.6875 C-12.65227698 77.55028436 -20.65014519 73.16952262 -28.43359375 65.6484375 C-36.70444909 56.57326045 -38.98885073 46.24720889 -38.83984375 34.14453125 C-37.87209845 24.26262505 -31.84547495 14.74426495 -24.3125 8.5 C-16.8494508 3.07576019 -9.09203395 0.79754684 0 0 Z " transform="translate(1680.5625,424.6875)" style="fill: #D26490;"/><path d="M0 0 C7.38691019 5.31011894 12.79525996 11.38124607 14.4375 20.5 C15.69969168 29.78612452 13.6725774 36.75070779 8.4375 44.5 C6.30091057 46.87555009 4.08653067 48.72564927 1.4375 50.5 C0.591875 51.098125 -0.25375 51.69625 -1.125 52.3125 C-7.86776216 55.59743541 -17.54450738 55.7286137 -24.6875 53.5 C-31.96254546 50.31155415 -37.68983829 44.56651975 -40.90625 37.359375 C-43.3541837 30.42356286 -43.92683965 22.05958069 -41.80859375 14.98046875 C-40.85340909 13.02140373 -39.81711335 11.27990129 -38.5625 9.5 C-37.964375 8.613125 -37.36625 7.72625 -36.75 6.8125 C-27.63575666 -2.82255725 -12.01367404 -6.79113986 0 0 Z " transform="translate(1715.5625,558.5)" style="fill: #9D3454;"/><path d="M0 0 C5.4595559 3.93595891 9.24430072 8.22530487 10.50390625 14.96484375 C11.08256958 21.18239659 9.30636948 26.02268402 5.6875 30.9375 C1.38852911 35.35588675 -3.57293433 36.88045578 -9.6171875 36.97265625 C-16.05147077 36.52853905 -19.81269067 34.22899189 -24.5625 29.875 C-27.57395489 24.82005786 -28.68353332 19.33595016 -28.04296875 13.46875 C-26.39038745 7.24225012 -22.56412482 3.4950523 -17.3125 -0.0625 C-11.70864002 -1.93045333 -5.60508879 -1.79785867 0 0 Z " transform="translate(1699.3125,666.0625)" style="fill: #6E1B39;"/><path d="M0 0 C2.875 1.4375 2.875 1.4375 5 4 C6.40804109 8.4135089 6.56503356 11.76719951 4.625 16 C0.91231579 18.82871178 -2.37751776 19.38726678 -7 19 C-10 17.625 -10 17.625 -12 15 C-12.96331225 11.93906109 -13.30781064 9.19781051 -13 6 C-9.5244399 0.24734879 -6.57297188 -0.55703152 0 0 Z " transform="translate(1673,752)" style="fill: #060606;"/></svg>